<?xml version="1.0" encoding="UTF-8"?>
<svg id="Laag_1" xmlns="http://www.w3.org/2000/svg" version="1.1" viewBox="0 0 512 512">
  <!-- Generator: Adobe Illustrator 29.7.1, SVG Export Plug-In . SVG Version: 2.1.1 Build 8)  -->
  <path d="M287,508v-174h69l14-78h-83v-39.5c0-8.3,6.5-25.5,12.5-31.5s22.5-13,30-13h43c.3,0,.8,1.3,1.5,1v-71c-50.3-10.3-122.3-12.6-156.4,33.1-25.9,34.6-22.8,79.9-22.6,120.9h-53v78h53v167.5l-2.1,1.1C52.7,466.3-30,320.3,13,180.5,39.7,93.8,113,26.4,201.8,7.3c177-38.1,335.6,114.7,304.9,292.9-18.7,108.4-109.8,196.4-219.7,207.8Z"/>
</svg>