<?xml version="1.0" encoding="UTF-8"?>
<svg id="Laag_1" xmlns="http://www.w3.org/2000/svg" version="1.1" viewBox="0 0 237.4 236.7">
  <!-- Generator: Adobe Illustrator 29.7.1, SVG Export Plug-In . SVG Version: 2.1.1 Build 8)  -->
  <path d="M101.3.2c19-.4,39.6-.2,58.5.7,42.8,2.1,65.8,14.1,73.7,58.6,5.7,31.8,6.7,115.9-8.3,143.9-16.8,31.4-54.9,30.2-86,31.6-54.3,2.5-124.7,10.4-135.6-59.4S-1.1,89.9,4.8,55.6C13.9,2,56.3,1,101.3.2ZM81.7,21.7c-62.6,3.2-58.9,35.8-59.5,88.4-.2,20.7-1.5,65.5,9,83.1s46,19.2,67,20.2,76.4,3,94.8-8,20.4-30.1,21.3-48.3c1-21.6.8-47.9,0-69.7-1-26.3-.5-49.8-28.5-60.7-21.4-8.3-79.4-6.4-104.1-5.1h0Z"/>
  <path d="M113.1,57c52.2-5.2,87.6,59.9,51.7,100.7-54.2,61.4-141.2-22.2-94.1-77.4,10.1-11.8,26.9-21.7,42.4-23.2h0ZM114,78.6c-31.6,4.3-46.7,47.4-20.8,69.3s85.4-18.6,56.3-54.3c-8.7-10.7-21.5-16.9-35.5-15Z"/>
  <path d="M190.4,44.3c15.3,14.2-3.9,36.5-19.3,21.7-15.4-14.8,6.2-33.9,19.3-21.7Z"/>
</svg>