<?xml version="1.0" encoding="UTF-8"?>
<svg id="Laag_1" xmlns="http://www.w3.org/2000/svg" version="1.1" viewBox="0 0 449 196.4">
  <!-- Generator: Adobe Illustrator 29.7.1, SVG Export Plug-In . SVG Version: 2.1.1 Build 8)  -->
  <g id="rOrCSU.tif">
    <g>
      <path d="M235,152.6V45.6c11.6-4.2,24.1-4.7,36.1-1.4,21.3,5.8,37.8,24.2,40.8,46.1,41-11.5,59.1,46.1,19.4,60.7l-8,1.6h-88.3Z"/>
      <path d="M99.6,146.7v-38.6c2.8-7.5,14.1-7,14.9,1.2s.8,27,0,35.7-11.5,9.1-14.9,1.7Z"/>
      <path d="M228.9,49.4c1.4,1.5,2,3.9,2.2,6v88.5c-.7,9.9-13.7,10.8-15.4,1l.5-93c1.8-5.2,9.1-6.5,12.7-2.5Z"/>
      <path d="M182.8,54.3c5.8-1.1,9.2,3.1,9.6,8.5-1.8,26,2.3,55,0,80.6-1,11.5-14.5,10.7-15.4,1V60.8c.6-3.1,2.6-6,5.8-6.5Z"/>
      <path d="M198.5,61.3c5.1-5.1,13.1-.9,13.2,6-1.6,24.5,2.2,52,0,76.1-1.1,11.5-14.4,10.5-15.4,1.5v-78.2c0-1.7.9-4.3,2.2-5.5Z"/>
      <path d="M164,65.2c5.7-.9,9,3.8,9.1,9-1.4,22.3,1.8,46.7,0,68.8s-13.5,12.1-15.4,1.5v-72.7c.4-3,3.4-6.1,6.3-6.6Z"/>
      <path d="M151,149.9c-4.6,4.2-12,1.2-12.7-5-1.6-14.4,1.2-31.7,0-46.4,1.5-8.2,12.2-8.9,14.8-1l-.3,50c-.6.6-1.2,1.9-1.8,2.4Z"/>
      <path d="M125.8,91.9c4-.3,7.7,2.6,8.1,6.5,1.4,15-1.1,32.2,0,47.5-2.3,8.6-14,7.7-14.8-1.4-1.3-14.8,1-31.5,0-46.5.8-3.1,3.6-5.9,6.8-6.1Z"/>
    </g>
  </g>
</svg>