<?xml version="1.0" encoding="UTF-8"?>
<svg id="Laag_1" xmlns="http://www.w3.org/2000/svg" version="1.1" viewBox="0 0 218.4 250.2">
  <!-- Generator: Adobe Illustrator 29.7.1, SVG Export Plug-In . SVG Version: 2.1.1 Build 8)  -->
  <g id="_x30_ykdKs.tif">
    <path d="M157.1,0c1.8,1,1,3,1.2,4.6,3.4,26.5,20.2,48.1,47,53.8s8.2,1,12.3,1.9c.3.8.4,1.6.5,2.5.9,12.1-.7,25.3,0,37.5l-.6,2.2c-1.2.9-10.6-.2-12.6-.5-13.4-1.7-27-6.4-38.6-13.2s-6.5-4.6-6.9-4.6-.8.4-1.1.7l.2,87.9c-2.1,67.1-80,102-131.6,57.4C-29.4,181.6,9.1,87.2,83.6,91.7s6.6.3,6.6,2.2v41.1c0,.1-.4.6-.5.9-10.6-2.2-20.4-1.4-29.6,4.4-21.5,13.5-22.4,44.8-1.9,59.7s53.8,1.9,56.7-25.2c-.7-53.6,1.1-107.1.4-160.7,0-4.4-1.6-10.2.8-14.1h41.1Z"/>
  </g>
</svg>