<?xml version="1.0" encoding="UTF-8"?>
<svg id="Laag_1" xmlns="http://www.w3.org/2000/svg" version="1.1" viewBox="0 0 203.5 204">
  <!-- Generator: Adobe Illustrator 29.7.1, SVG Export Plug-In . SVG Version: 2.1.1 Build 8)  -->
  <g id="vJ32D4">
    <g>
      <path d="M0,204l14.2-52.1C-23.9,84.7,22.9,1.4,100.3,0c70.4-1.3,120.6,67.6,97.4,134.6-20.2,58.5-89.6,85.5-144.2,55.6L0,204ZM24.3,180.1l31.5-8.1c7.1,3.7,13.8,7.3,21.6,9.7,58.8,17.7,115.9-30.9,108.1-91.5C177.5,28.1,106.2-3.8,54.4,31.8,15.9,58.1,6.6,110.8,32.7,149.3l-8.4,30.8Z"/>
      <path d="M65.5,51.3c6.1-.8,9.7.4,12.1,6.1s4.4,13.1,7.2,19.3c2.3,6.1-9.3,11.7-8.9,16.7s2.6,5.1,3.3,6.3c4.8,7.8,11.6,15.1,19,20.4s12,8.3,16.1,7.8,5.8-4.9,7.4-6.6c5-5.6,3.8-8.1,12-4.3s12.2,6.1,17.1,9,3.4,2.8,3.1,6.9c-1.2,14.2-15.5,21.2-28.5,20-9.7-.9-28.2-9.9-36.3-15.6-16.6-11.8-41.4-41.9-39.8-63.3.6-8.2,7.2-21.3,16.1-22.5Z"/>
    </g>
  </g>
</svg>